<?xml version="1.0" encoding="utf-8"?>
<!-- Generator: Adobe Illustrator 26.5.2, SVG Export Plug-In . SVG Version: 6.00 Build 0)  -->
<svg version="1.1" id="Layer_1" xmlns="http://www.w3.org/2000/svg" xmlns:xlink="http://www.w3.org/1999/xlink" x="0px" y="0px"
	 viewBox="0 0 500 500" style="enable-background:new 0 0 500 500;" xml:space="preserve">
<style type="text/css">
	.st0{fill:url(#SVGID_1_);}
	.st1{fill:url(#SVGID_00000147221407420703540060000000633741384780691865_);}
</style>
<g>
	
		<linearGradient id="SVGID_1_" gradientUnits="userSpaceOnUse" x1="196.5995" y1="343.8848" x2="360.9863" y2="204.6746" gradientTransform="matrix(1 0 0 -1 0 502)">
		<stop  offset="0" style="stop-color:#FDB913"/>
		<stop  offset="1" style="stop-color:#F68B1F"/>
	</linearGradient>
	<path class="st0" d="M448.6,184.5L448.6,184.5c0-2.4-0.4-4.8-0.4-7.2v-1.6c-0.4-4.8-1.2-9.6-2.4-13.9l-0.4-1.6
		c-1.2-4.4-2.4-8.8-4.4-13.1l-0.4-1.2c-1.6-4-3.6-8.4-6-11.9l-0.8-1.2c-2.4-3.6-4.8-7.6-7.2-10.7l-0.8-0.8c-2.8-3.6-5.6-6.8-8.8-10
		l-0.8-0.8c-1.2-1.2-2.8-2.8-4.4-4l-2.8-2.4l0,0c-3.6-3.2-7.6-6-11.9-8.8l-1.2-0.8c-2.4-1.2-4.4-2.8-6.8-4l-1.2-0.8
		c-2.8-1.2-5.2-2.4-7.2-3.6c-8.4-3.6-17.5-6.4-26.3-8c-34.6-6-69.3,6.4-95.5,33.8c-2.4,2.4-4.8,5.2-6.8,7.6c-2-2.8-4.4-5.2-6.8-7.6
		c-26.3-27.1-61.3-39.4-95.5-33.8c-8.8,1.6-17.5,4-26.3,8c-2.4,0.8-4.8,2-7.2,3.6l-1.2,0.8c-2.4,1.2-4.4,2.4-6.8,4l-1.2,0.8
		c-4,2.8-8,5.6-11.9,8.8l0,0l-2.8,2.4c-1.6,1.2-2.8,2.8-4.4,4l-0.8,0.8c-3.2,3.2-6,6.4-8.8,10l-0.8,0.8c-2.8,3.6-5.2,7.2-7.2,11.1
		l-0.8,1.2c-2.4,4-4.4,8-6,11.9l-0.4,1.2c-1.6,4.4-3.2,8.8-4.4,13.1l-0.4,1.6c-1.2,4.4-2,9.2-2.4,13.9v1.6c-0.4,2.4-0.4,4.8-0.4,7.2
		c0,2.4,0,4.8,0,7.6v2c0,2.8,0.4,5.6,0.4,8c0.4,2.4,0.8,4.8,1.2,8l0.4,2c0.4,3.2,1.2,5.6,1.6,8.4c0.8,3.2,1.6,6.8,2.8,10.3
		c0.4,1.2,0.8,2.4,1.2,3.2l0.8,2.8c0.4,1.2,0.8,2.8,1.2,4c0.8,2,1.6,4,2.4,5.6l0.8,1.6c0.4,0.8,0.8,1.6,1.2,2.4
		c1.2,2.4,2,4.8,3.2,7.2l0.4,0.8c0.4,0.4,0.4,1.2,0.8,1.6c1.2,2.4,2.8,5.2,4,7.6l0.8,1.6c1.6,2.8,3.2,5.6,5.2,8.4l0.4,0.4
		c1.6,2.8,3.6,5.6,5.6,8.4c0.4,0.4,0.8,1.2,1.2,1.6l0.8,1.2c1.2,1.6,2.4,3.6,3.6,5.2l3.2,4l0,0c2.8,3.6,5.2,6.8,8,10l2,2.8
		c1.2,1.6,2.8,3.2,4,4.8c1.2,1.2,2,2.4,3.2,3.6c1.2,1.2,2.4,2.4,3.6,3.6l0.8,0.8c0.8,0.8,1.6,2,2.8,2.8c1.6,2,3.6,3.6,5.2,5.2
		c1.6,1.6,2.8,2.8,4.4,4.4l3.2,3.2c1.2,1.2,2.4,2.4,3.6,3.6l3.2,2.8c2,2,4.4,4,6.4,6l3.2,2.8c1.2,1.2,2.8,2.4,4,3.6
		c0.8,0.8,2,1.6,2.8,2.4c1.2,1.2,2.8,2.4,4,3.6l2.4,2c2.4,2,4.8,4,7.6,6l2.4,2c1.2,1.2,2.8,2,4,3.2l2.4,1.6c2.8,2,5.6,4,8.4,6.4
		l0.8,0.8c1.6,1.2,2.8,2,4,3.2l2,1.6c1.2,0.8,2.8,2,4,2.8l0.8,0.4c2.8,2,5.2,3.6,8,5.6l1.2,0.8c1.2,0.8,2.4,1.6,3.6,2.4l1.2,0.8
		c4,2.4,7.6,4.8,10.7,6.8l0.8,0.4c4.4,2.8,8,4.8,11.1,6.8c4.4,2.8,7.6,4.4,8,4.8c1.6,0.8,3.2,1.2,4.8,1.2c1.6,0,3.2-0.4,4.8-1.2
		c0.8-0.4,3.6-2,8-4.4c3.2-1.6,6.8-4,11.5-7.2l0.4-0.4c3.2-2,7.2-4.4,11.1-7.2l0.8-0.8c1.2-0.8,2.4-1.6,3.6-2.4l1.2-0.8
		c2.4-1.6,5.2-3.6,8-5.2l0.8-0.8c1.2-0.8,2.8-2,4-2.8l2-1.6c1.2-0.8,2.8-2,4-2.8l1.2-0.8c2.8-2,5.6-4,8-6l2.4-1.6
		c1.2-1.2,2.8-2,4-3.2l2.4-2c2.4-2,4.8-4,7.6-6l2.4-2c1.2-1.2,2.4-2,4-3.6l2.8-2.4c1.2-1.2,2.8-2.4,4-3.6l3.2-2.8c2-2,4.4-4,6.4-6
		c1.2-0.8,2-2,3.2-2.8c1.2-1.2,2.4-2.4,3.6-3.6c0.8-0.8,2-2,2.8-2.8l0.4-0.4c1.6-1.6,2.8-2.8,4.4-4.4c1.6-1.6,3.6-3.6,5.2-5.2
		c0.8-0.8,1.6-2,2.8-2.8l0.8-0.8c1.2-1.2,2.4-2.4,3.6-3.6c1.2-1.2,2-2.4,3.2-3.6c1.2-1.6,2.8-3.2,4-4.8l2-2.4l0.4-0.4l0,0
		c2.8-3.2,5.2-6.4,8-10l0,0l3.2-4.4c1.2-1.6,2.4-3.2,3.6-5.2l1.2-1.6c0.4-0.4,0.8-1.2,1.2-1.6c2-2.8,3.6-5.6,5.6-8.4l0.4-0.8
		c1.6-2.8,3.2-5.6,4.8-8.4l0.8-1.6c1.6-2.4,2.8-5.2,4-7.6c0.4-0.4,0.4-1.2,0.8-1.6l0.4-0.8c1.2-2.4,2.4-4.8,3.2-7.2
		c0.4-0.8,0.8-1.6,1.2-2.4l0.8-2c0.8-2,1.6-3.6,2.4-5.6c0.4-1.2,0.8-2.4,1.2-4l1.2-2.8c0.4-1.2,0.8-2.4,1.2-3.2
		c1.2-3.6,2-7.2,2.8-10.3c0.8-2.4,1.2-5.2,1.6-8.4l0.4-2c0.4-3.2,0.8-5.6,1.2-8c0.4-2.4,0.4-4.8,0.4-7.6v-2
		C449,189.2,449,186.9,448.6,184.5z M260.3,141.9L260.3,141.9c1.6-2,2.8-4,4-5.6l1.2-1.6c0.8-1.2,2-2.4,2.8-3.6l1.2-1.6
		c1.2-1.6,2.4-2.8,4-4.4l0.4-0.4c1.2-1.2,2.4-2.4,3.6-3.6l1.6-1.2c0.8-0.8,2-1.6,2.8-2.4l1.6-1.2c1.2-1.2,2.4-2,4-3.2l1.2-0.8
		c1.2-0.8,2.4-1.6,3.6-2.4c0.4-0.4,1.2-0.8,1.6-1.2c0.8-0.4,2-1.2,2.8-1.6l0.4-0.4c0.4-0.4,0.8-0.4,1.2-0.8c1.2-0.8,2.4-1.2,4-2
		l1.6-0.8c1.2-0.4,2-0.8,3.2-1.2c0.8-0.4,1.2-0.4,2-0.8c0.8-0.4,2-0.8,3.2-1.2c0.4,0,1.2-0.4,1.6-0.4c1.2-0.4,2.4-0.8,3.6-1.2
		c0.4,0,1.2-0.4,2-0.4c0.8-0.4,2-0.4,2.8-0.8c0.8,0,1.2-0.4,2-0.4c0.8,0,1.6-0.4,2.8-0.4l2-0.4c1.2,0,2.4-0.4,3.6-0.4
		c0.4,0,0.8,0,1.6,0h0.4c0.8,0,2,0,2.8,0c0.8,0,1.2,0,2,0c0.8,0,1.6,0,2.4,0c0.8,0,1.2,0,2,0c1.2,0,2.4,0,3.6,0.4h1.6
		c0.8,0,2,0.4,2.8,0.4c0.4,0,1.2,0,1.6,0.4c0.8,0,1.6,0.4,2.4,0.4l1.6,0.4c1.2,0.4,2.4,0.4,3.2,0.8l1.6,0.4c0.8,0.4,2,0.4,2.8,0.8
		c0.4,0,1.2,0.4,1.6,0.4c0.8,0.4,1.6,0.4,2,0.8l1.6,0.8c0.8,0.4,1.6,0.4,2,0.8l1.2,0.4c3.2,1.6,6.8,3.2,10,5.2
		c4.4,2.4,8.4,5.2,11.9,8.4c5.2,4,10,8.8,13.9,13.9c18.3,23.1,24.3,52.9,16.7,84c-1.6,6-3.2,11.9-5.6,17.9
		c-3.6,9.2-8.4,19.1-13.9,28.7c-3.2,5.6-7.2,11.5-11.1,17.5C349.5,342.5,274.3,389,252.4,401.8l0,0l0,0
		c-21.9-12.7-97.1-59.3-142.5-123.4c-4-5.6-8-11.5-11.1-17.5c-5.6-10-10.3-19.5-13.9-28.7c-2.4-6-4-11.9-5.6-17.9
		c-7.6-31.4-1.6-61.3,16.7-84c4-5.2,8.8-10,13.9-13.9c4-3.2,8-6,11.9-8.4c3.2-2,6.4-3.6,10-5.2l1.2-0.4c0.8-0.4,1.6-0.4,2-0.8
		l1.6-0.8c0.8-0.4,1.6-0.4,2-0.8c0.4,0,1.2-0.4,1.6-0.4c0.8-0.4,2-0.4,2.8-0.8l1.6-0.4c1.2-0.4,2.4-0.4,3.2-0.8l1.6-0.4
		c0.8,0,1.6-0.4,2.4-0.4c0.4,0,1.2,0,1.6-0.4c0.8,0,2-0.4,3.2-0.4h1.2c1.2,0,2.4-0.4,3.6-0.4h2c0.8,0,1.6,0,2.4,0c0.4,0,0.8,0,1.2,0
		h0.4c0.8,0,2,0,2.8,0h0.4c0.4,0,0.8,0,1.6,0c1.2,0,2.4,0,3.6,0.4l2,0.4c0.8,0,1.6,0.4,2.8,0.4c0.8,0,1.2,0.4,2,0.4s2,0.4,3.2,0.8
		c0.4,0,1.2,0.4,1.6,0.4c1.2,0.4,2.4,0.8,3.6,1.2c0.4,0,1.2,0.4,2,0.4c0.8,0.4,2,0.8,2.8,0.8c0.8,0.4,1.2,0.4,2,0.8
		c1.2,0.4,2,0.8,3.2,1.2l1.6,0.8c1.2,0.4,2.4,1.2,4,2c0.4,0.4,0.8,0.4,1.6,0.8c0.8,0.4,2,1.2,2.8,1.6c0.4,0.4,1.2,0.8,1.6,1.2
		c1.2,0.8,2.4,1.6,3.6,2.4l1.2,0.8c1.2,0.8,2.8,2,4,3.2c0.4,0.4,0.8,0.8,1.6,1.2c0.8,0.8,2,1.6,2.8,2.4c0.4,0.4,0.8,0.8,1.6,1.2
		c1.2,1.2,2.4,2.4,4,4l0.4,0.4c1.2,1.2,2.4,2.8,4,4.4l1.2,1.6c0.8,1.2,2,2.4,2.8,3.6l1.2,1.6c1.2,1.6,2.4,3.6,4,5.6
		c1.6,2.4,4.4,4,7.6,4.4h0.4c0.4,0,0.4,0,0.8,0C256.4,145.5,258.8,143.9,260.3,141.9z M259.6,140.7L259.6,140.7L259.6,140.7
		L259.6,140.7z"/>
	
		<linearGradient id="SVGID_00000062909877555524240350000017346439333064131752_" gradientUnits="userSpaceOnUse" x1="168.6103" y1="310.8341" x2="332.9974" y2="171.6234" gradientTransform="matrix(1 0 0 -1 0 502)">
		<stop  offset="0" style="stop-color:#FDB913"/>
		<stop  offset="1" style="stop-color:#F68B1F"/>
	</linearGradient>
	<path style="fill:url(#SVGID_00000062909877555524240350000017346439333064131752_);" d="M240,325c-3.2,0-6.4-2-7.6-5.2l-41-105.9
		l-29.9,50.1c-1.6,2.4-4,4-6.8,4H18c-4.4,0-8-3.6-8-8c0-4.4,3.6-8,8-8h132.1l35.8-60.1c1.6-2.8,4.4-4,7.6-4c3.2,0.4,5.6,2.4,6.8,5.2
		l39,100.3l42.2-129c1.2-3.2,4.4-5.6,8-5.6s6.4,2.4,7.6,6l21.1,77.6l23.9-29.5c1.6-2,4-3.2,6.4-2.8c2.4,0,4.8,1.6,6.4,3.6l25.9,38.2
		H482c4.4,0,8,3.6,8,8c0,4.4-3.6,8-8,8H376.2c-2.8,0-5.2-1.2-6.8-3.6l-22.3-33l-26.7,33.4c-2,2.4-4.8,3.6-8,2.8
		c-2.8-0.8-5.2-2.8-6-5.6l-17.9-66.9l-41,124.6C246.4,322.6,243.6,325,240,325L240,325z"/>
</g>
</svg>
